<svg width="350" height="350" xmlns="http://www.w3.org/2000/svg" xmlns:xlink="http://www.w3.org/1999/xlink" overflow="hidden"><defs><clipPath id="clip0"><rect x="465" y="185" width="350" height="350"/></clipPath></defs><g clip-path="url(#clip0)" transform="translate(-465 -185)"><path d="M503.415 500.854 776.585 500.854 776.585 535 503.415 535Z" fill="#FFFFFF"/><path d="M712.561 197.805 712.561 249.025 763.78 249.025Z" fill="#FFFFFF"/><path d="M686.951 274.634 686.951 185 503.415 185 503.415 313.049 776.585 313.049 776.585 274.634Z" fill="#FFFFFF"/><path d="M582.61 389.077 572.775 389.077 572.775 403.98 583.07 403.98C586.421 403.98 588.525 400.709 588.525 396.452 588.525 392.066 586.209 389.077 582.61 389.077Z" fill="#FFFFFF"/><path d="M503.415 338.659 503.415 475.244 776.585 475.244 776.585 338.659 503.415 338.659ZM583.839 414.968 572.775 414.968 572.775 432.561 560.175 432.561 560.175 378.012 583.454 378.012C593.518 378.012 601.279 387.317 601.279 396.452 601.279 406.951 593.412 414.968 583.839 414.968ZM659.746 432.561 659.746 432.561 649.603 432.561 624.479 401.368 624.479 432.561 611.88 432.561 611.88 378.012 621.715 378.012 647.145 410.05 647.145 378.012 659.746 378.012 659.746 432.561ZM721.976 432.561 721.975 432.561 711.526 432.561 711.526 427.183C707.378 431.025 702.588 432.945 697.159 432.945 682.15 432.945 670.961 420.609 670.961 404.901 670.961 389.023 683.591 377.628 698.158 377.628 708.889 377.628 716.163 382.381 719.978 389.535L710.605 396.604C707.653 391.264 702.958 388.844 697.697 388.844 689.939 388.844 683.714 395.746 683.714 405.363 683.714 414.526 689.619 421.728 698.235 421.728 703.153 421.728 707.582 419.449 711.527 414.889L711.527 413.2 700.924 413.2 700.924 404.056 721.976 404.056 721.976 432.561Z" fill="#FFFFFF"/></g></svg>