<svg width="24" height="24" xmlns="http://www.w3.org/2000/svg" xmlns:xlink="http://www.w3.org/1999/xlink" overflow="hidden"><defs><clipPath id="clip0"><rect x="628" y="348" width="24" height="24"/></clipPath></defs><g clip-path="url(#clip0)" transform="translate(-628 -348)"><path d="M640 354 640 352 648 352 648 368 640 368 640 366 636 366 636 364 632 364 632 356 636 356 636 354 640 354ZM642 354 646 354 646 366 642 366 642 354ZM640 356 638 356 638 364 640 364 640 356ZM636 358 636 362 634 362 634 358 636 358Z" fill="#FFFFFF" fill-rule="evenodd"/></g></svg>