<svg width="16" height="16" xmlns="http://www.w3.org/2000/svg" xmlns:xlink="http://www.w3.org/1999/xlink" overflow="hidden"><defs><clipPath id="clip0"><rect x="476" y="225" width="16" height="16"/></clipPath></defs><g clip-path="url(#clip0)" transform="translate(-476 -225)"><path d="M478.5 226C477.672 226 477 226.672 477 227.5L477 238.5C477 239.328 477.672 240 478.5 240L484.586 240C484.984 240 485.365 239.841 485.646 239.56L490.561 234.646C490.842 234.365 491 233.984 491 233.586L491 227.5C491 226.672 490.328 226 489.5 226L478.5 226ZM478 227.5C478 227.224 478.224 227 478.5 227L489.5 227C489.776 227 490 227.224 490 227.5L490 233 485.5 233C484.672 233 484 233.672 484 234.5L484 239 478.5 239C478.224 239 478 238.776 478 238.5L478 227.5ZM485 238.793 485 234.5C485 234.224 485.224 234 485.5 234L489.793 234 485 238.793Z" fill="#FFFFFF"/></g></svg>